PathFileType	4	(X/Y/Z)	c:/Users/goper/Files/vsCode/490R/osim_files/A05/A05_Fast_01.trc
DataRate	CameraRate	NumFrames	NumMarkers	Units                	OrigDataRate	OrigDataStartFrame	OrigNumFrames
250.00	250.00	4	36	mm	250.0	1192	2383
                Frame#	Time	LPSIS			LASIS			LTH1			LTH2			LTH3			LTH4			LLFE			LMFE			LSH1			LSH2			LSH3			LSH4			LLMAL			LMMAL			LCAL			LMTP5			LTOE			LMTP1			RPSIS			RASIS			RTH1			RTH2			RTH3			RTH4			RLFE			RMFE			RSH1			RSH2			RSH3			RSH4			RLMAL			RMMAL			RCAL			RMTP1			RTOE			RMTP5		
		X1	Y1	Z1	X2	Y2	Z2	X3	Y3	Z3	X4	Y4	Z4	X5	Y5	Z5	X6	Y6	Z6	X7	Y7	Z7	X8	Y8	Z8	X9	Y9	Z9	X10	Y10	Z10	X11	Y11	Z11	X12	Y12	Z12	X13	Y13	Z13	X14	Y14	Z14	X15	Y15	Z15	X16	Y16	Z16	X17	Y17	Z17	X18	Y18	Z18	X19	Y19	Z19	X20	Y20	Z20	X21	Y21	Z21	X22	Y22	Z22	X23	Y23	Z23	X24	Y24	Z24	X25	Y25	Z25	X26	Y26	Z26	X27	Y27	Z27	X28	Y28	Z28	X29	Y29	Z29	X30	Y30	Z30	X31	Y31	Z31	X32	Y32	Z32	X33	Y33	Z33	X34	Y34	Z34	X35	Y35	Z35	X36	Y36	Z36

1192	4.76400	-398.66406	992.85101	353.01663	-578.01251	944.91516	479.86453	-378.01605	697.11945	510.79431	-375.75339	653.12012	512.97125	-433.99606	686.62415	536.97479	-424.07736	644.62140	533.94312	-380.48260	472.21307	510.16168	-394.78992	465.12921	411.61292	-299.33704	408.12354	509.40759	-274.57672	371.22003	511.09116	-347.45505	371.09384	506.56677	-317.20908	337.88828	508.86536	-172.91689	165.87080	498.82352	-181.59521	168.79028	408.74899	-80.72843	155.63324	438.68201	-253.76535	52.07323	531.02020	-307.95325	49.38862	472.66858	-278.14200	63.72083	421.68616	-413.63763	993.85950	271.43677	-608.13434	946.23236	188.48027	-682.29059	598.25024	131.40083	-703.78217	563.57111	146.32303	-726.54645	629.76538	162.22839	0.00000	0.00000	0.00000	-688.51337	513.20331	144.77887	-699.00616	497.12506	287.86572	-714.68066	252.16306	146.58041	-723.05658	206.44057	157.95731	-774.17163	260.18024	161.36897	-774.22845	210.67949	166.19174	-743.69434	102.37811	181.53430	-788.14630	135.57175	268.33942	-697.78186	64.93002	261.46158	-909.94476	62.16718	259.61264	-939.56409	72.82059	206.21906	-876.72052	44.31717	145.49800
1193	4.76800	-403.23862	993.62329	352.47064	-582.60687	945.77838	479.27689	-384.08298	696.84039	510.54166	-382.23425	652.83899	512.76147	-440.10709	686.90411	536.66864	-430.49838	644.81244	533.76849	-388.50143	471.93808	510.47372	-402.45206	464.76801	411.76813	-306.40942	409.34641	509.48523	-281.04483	372.55487	511.15460	0.00000	0.00000	0.00000	-323.20303	338.58572	508.98297	-176.56274	168.98849	498.53619	-185.43890	171.65842	408.51355	-83.95095	160.96718	438.32004	-254.45514	53.53344	531.29028	-308.87634	49.39292	472.62030	-279.57022	64.26907	421.64316	-418.07437	994.83514	270.92764	-612.31982	947.67310	188.04588	-686.93439	599.09277	130.41835	-708.33777	564.56287	145.68166	-731.71881	630.79169	160.09019	0.00000	0.00000	0.00000	-693.46344	514.37128	144.31975	-705.55328	498.66373	286.80475	-716.85913	253.17030	146.50807	-724.83728	206.64922	157.38222	-776.44513	260.57159	160.76709	-775.99426	211.00113	165.60655	-744.21588	102.75138	181.19170	-786.23047	134.10350	266.87219	-698.02271	65.43871	261.20410	-910.13916	61.94824	259.45444	-939.95667	72.23599	206.07823	-876.93420	43.98143	145.28610
1194	4.77200	-407.66095	994.44434	351.80859	-586.98901	946.69855	478.57343	-389.78555	696.35120	509.43765	-389.16931	652.42059	512.50745	-446.44299	687.16559	536.36493	-437.27777	644.95319	533.49896	-396.65735	471.61121	510.74954	-411.48666	464.11185	412.49109	-313.58414	410.03360	509.73785	-287.73016	373.96222	511.28052	0.00000	0.00000	0.00000	-329.26077	339.39420	509.05865	-180.46960	172.12285	498.27628	-189.50204	174.69603	407.92450	-87.88145	165.94426	438.11691	-255.61522	54.94647	531.22583	-310.09717	49.56144	472.58328	-280.95609	65.20276	421.52643	-422.51642	995.83435	270.38367	-616.91895	949.25629	187.31842	-691.04614	599.95294	129.69247	-712.59955	565.43634	144.94275	-736.37726	631.87079	158.34979	0.00000	0.00000	0.00000	-697.98682	515.42328	143.95532	-711.52728	500.14505	285.99396	-719.02740	254.15491	146.62813	-726.60974	207.49057	157.40189	-778.91644	260.62955	160.76660	-777.90289	211.39478	165.26411	-744.93567	103.10283	180.97194	-787.18359	134.44044	266.61627	-698.28003	65.93910	261.04199	-910.49860	61.60255	259.44608	-939.93097	70.96520	206.06836	-877.11511	43.77346	145.23198
1195	4.77600	-411.98785	995.34949	351.07736	-591.39801	947.69458	477.82498	-397.02328	695.59735	510.37158	-395.45041	652.23572	512.42303	-452.87054	687.45825	536.00745	-444.04819	645.15558	533.26532	-405.06088	471.33365	510.98901	-419.84531	463.67719	412.80920	-320.98520	411.03882	509.91495	-294.60904	375.40143	511.39362	0.00000	0.00000	0.00000	-335.63181	340.25922	509.11108	-184.39468	175.56223	498.02295	-193.46567	177.75409	408.02142	-91.49483	171.49799	437.71719	-257.00937	56.54089	531.09412	-311.23239	49.92026	472.39615	-282.29059	66.12115	421.16425	-426.89215	996.78864	269.84518	-621.30322	950.86530	186.47833	-694.61078	600.75922	129.19981	-716.33105	566.26794	144.23846	-740.11218	632.95819	157.03690	0.00000	0.00000	0.00000	-702.29681	516.28711	143.78183	-716.93823	501.60046	285.35880	-721.14575	255.02121	146.81049	-728.41223	208.16580	157.57326	-781.15479	260.88486	160.78743	-779.85461	211.73283	165.18797	-746.10718	104.25263	180.84068	-788.03711	134.63837	266.60196	-698.53656	66.42996	260.99014	-910.94281	61.13381	259.64368	-941.87097	71.67485	207.03891	-877.30481	43.76656	145.28494
